<?xml version="1.0" encoding="UTF-8"?> <svg xmlns="http://www.w3.org/2000/svg" xmlns:xlink="http://www.w3.org/1999/xlink" version="1.1" width="512" height="512" x="0" y="0" viewBox="0 0 477.867 477.867" style="enable-background:new 0 0 512 512" xml:space="preserve" class=""><g><path d="m476.996 114.074-34.133-102.4A17.065 17.065 0 0 0 426.667 0H51.2a17.065 17.065 0 0 0-16.196 11.674L.87 114.074a17.394 17.394 0 0 0-.87 4.932v17.528a84.976 84.976 0 0 0 34.133 67.891v222.242c0 28.277 22.923 51.2 51.2 51.2h307.2c28.277 0 51.2-22.923 51.2-51.2V204.425a84.973 84.973 0 0 0 34.133-67.891v-17.528a17.346 17.346 0 0 0-.87-4.932zM358.4 34.133h55.962l22.767 68.267H358.4V34.133zm-102.4 0h68.267V102.4H256V34.133zm-102.4 0h68.267V102.4H153.6V34.133zm-90.095 0h55.962V102.4H40.738l22.767-68.267zm209.562 409.6H204.8V307.2h68.267v136.533zM409.6 426.667c0 9.426-7.641 17.067-17.067 17.067H307.2v-153.6c0-9.426-7.641-17.067-17.067-17.067h-102.4c-9.426 0-17.067 7.641-17.067 17.067v153.6H85.333c-9.426 0-17.067-7.641-17.067-17.067V220.16a84.364 84.364 0 0 0 68.267-15.667c30.466 22.376 71.934 22.376 102.4 0 30.466 22.376 71.934 22.376 102.4 0A84.36 84.36 0 0 0 409.6 220.16v206.507zm-17.067-238.934a50.433 50.433 0 0 1-38.349-17.715c-6.202-7.097-16.984-7.823-24.081-1.621a16.988 16.988 0 0 0-1.621 1.621c-18.977 21.18-51.529 22.965-72.709 3.989a51.592 51.592 0 0 1-3.989-3.989c-6.679-7.097-17.847-7.437-24.945-.757-.26.245-.513.497-.757.757-18.976 21.18-51.529 22.965-72.709 3.989a51.416 51.416 0 0 1-3.989-3.989c-6.679-7.097-17.848-7.437-24.945-.757-.26.245-.513.497-.757.757a50.432 50.432 0 0 1-38.349 17.715c-28.277 0-51.2-22.923-51.2-51.2h409.6c0 28.277-22.923 51.2-51.2 51.2z" fill="#98c222" opacity="1" data-original="#000000" class=""></path></g></svg> 